<?xml version="1.0" encoding="UTF-8" standalone="no"?>
<!-- Created with Inkscape (http://www.inkscape.org/) -->

<svg
   xmlns:dc="http://purl.org/dc/elements/1.1/"
   xmlns:cc="http://creativecommons.org/ns#"
   xmlns:rdf="http://www.w3.org/1999/02/22-rdf-syntax-ns#"
   xmlns:svg="http://www.w3.org/2000/svg"
   xmlns="http://www.w3.org/2000/svg"
   xmlns:sodipodi="http://sodipodi.sourceforge.net/DTD/sodipodi-0.dtd"
   xmlns:inkscape="http://www.inkscape.org/namespaces/inkscape"
   id="svg3078"
   version="1.1"
   inkscape:version="0.48.4 r9939"
   width="51"
   height="73"
   sodipodi:docname="3.svg">
  <metadata
     id="metadata3084">
    <rdf:RDF>
      <cc:Work
         rdf:about="">
        <dc:format>image/svg+xml</dc:format>
        <dc:type
           rdf:resource="http://purl.org/dc/dcmitype/StillImage" />
        <dc:title></dc:title>
      </cc:Work>
    </rdf:RDF>
  </metadata>
  <defs
     id="defs3082" />
  <sodipodi:namedview
     pagecolor="#ffffff"
     bordercolor="#666666"
     borderopacity="1"
     objecttolerance="10"
     gridtolerance="10"
     guidetolerance="10"
     inkscape:pageopacity="0"
     inkscape:pageshadow="2"
     inkscape:window-width="1364"
     inkscape:window-height="718"
     id="namedview3080"
     showgrid="false"
     inkscape:zoom="4.5719781"
     inkscape:cx="29.046391"
     inkscape:cy="50.729673"
     inkscape:window-x="0"
     inkscape:window-y="0"
     inkscape:window-maximized="1"
     inkscape:current-layer="svg3078" />
  <path
     style="fill:#000000"
     d="M 11.244289,63.521428 C 7.2213215,60.591497 2.7850113,53.003349 5.8491999,47.90301 8.9133885,42.802671 22.541981,52.412019 24.791837,44.919677 c 2.249857,-7.492341 -9.585364,-7.854239 -9.711004,-10.708948 -0.125641,-2.854709 -1.023073,-4.146615 7.58277,-7.168356 8.605844,-3.021742 8.826935,-12.054385 0.884724,-6.605951 -7.94221,5.448435 -13.494106,-0.375764 -12.029315,-7.96144 1.46479,-7.5856759 28.708663,-10.1401672 33.610725,-2.5088803 4.902062,7.6312873 -4.897752,23.0100773 -6.839996,26.4328263 -1.942245,3.422749 16.183332,6.216976 4.04552,22.009537 -12.137811,15.79256 -29.284224,6.42882 -31.090972,5.112963 z"
     id="path3088"
     inkscape:connector-curvature="0"
     sodipodi:nodetypes="szzzzzzzzcs" />
</svg>
