<?xml version="1.0" encoding="UTF-8" standalone="no"?>
<!-- Created with Inkscape (http://www.inkscape.org/) -->

<svg
   xmlns:dc="http://purl.org/dc/elements/1.1/"
   xmlns:cc="http://creativecommons.org/ns#"
   xmlns:rdf="http://www.w3.org/1999/02/22-rdf-syntax-ns#"
   xmlns:svg="http://www.w3.org/2000/svg"
   xmlns="http://www.w3.org/2000/svg"
   xmlns:sodipodi="http://sodipodi.sourceforge.net/DTD/sodipodi-0.dtd"
   xmlns:inkscape="http://www.inkscape.org/namespaces/inkscape"
   id="svg2"
   version="1.1"
   inkscape:version="0.48.4 r9939"
   width="63"
   height="79"
   sodipodi:docname="7.png">
  <metadata
     id="metadata8">
    <rdf:RDF>
      <cc:Work
         rdf:about="">
        <dc:format>image/svg+xml</dc:format>
        <dc:type
           rdf:resource="http://purl.org/dc/dcmitype/StillImage" />
        <dc:title></dc:title>
      </cc:Work>
    </rdf:RDF>
  </metadata>
  <defs
     id="defs6" />
  <sodipodi:namedview
     pagecolor="#ffffff"
     bordercolor="#666666"
     borderopacity="1"
     objecttolerance="10"
     gridtolerance="10"
     guidetolerance="10"
     inkscape:pageopacity="0"
     inkscape:pageshadow="2"
     inkscape:window-width="1364"
     inkscape:window-height="718"
     id="namedview4"
     showgrid="false"
     inkscape:zoom="0.52809241"
     inkscape:cx="-880.01519"
     inkscape:cy="170.41915"
     inkscape:window-x="0"
     inkscape:window-y="0"
     inkscape:window-maximized="1"
     inkscape:current-layer="svg2" />
  <path
     style="fill:#000000"
     d="m 14.376085,71.216053 c -5.4971555,-6.173682 20.139057,-24.263161 8.335779,-22.809515 -11.803278,1.453647 3.071325,-11.957386 6.343221,-7.948731 3.271896,4.008655 11.244494,-5.6292 8.668642,-11.969104 C 35.147874,22.148798 13.355493,41.675623 9.5440911,32.672272 5.7326892,23.668921 -10.781559,6.4213789 31.602926,6.5992192 73.98741,6.7770594 62.059889,22.038238 54.730552,28.433915 c -7.329337,6.395678 -15.665067,14.60217 -5.159975,18.784868 10.505092,4.182698 -1.992893,15.008848 -6.884391,9.476715 -4.891498,-5.532132 -13.957689,0.703865 -14.045343,9.961152 -0.08765,9.257287 -8.767602,10.733086 -14.264758,4.559403 z"
     id="path2987"
     inkscape:connector-curvature="0"
     sodipodi:nodetypes="zzzzzzzzzzz" />
</svg>
