<?xml version="1.0" encoding="UTF-8" standalone="no"?>
<!-- Created with Inkscape (http://www.inkscape.org/) -->

<svg
   xmlns:dc="http://purl.org/dc/elements/1.1/"
   xmlns:cc="http://creativecommons.org/ns#"
   xmlns:rdf="http://www.w3.org/1999/02/22-rdf-syntax-ns#"
   xmlns:svg="http://www.w3.org/2000/svg"
   xmlns="http://www.w3.org/2000/svg"
   xmlns:sodipodi="http://sodipodi.sourceforge.net/DTD/sodipodi-0.dtd"
   xmlns:inkscape="http://www.inkscape.org/namespaces/inkscape"
   id="svg2"
   version="1.1"
   inkscape:version="0.48.4 r9939"
   width="60"
   height="79"
   sodipodi:docname="8.png">
  <metadata
     id="metadata8">
    <rdf:RDF>
      <cc:Work
         rdf:about="">
        <dc:format>image/svg+xml</dc:format>
        <dc:type
           rdf:resource="http://purl.org/dc/dcmitype/StillImage" />
        <dc:title></dc:title>
      </cc:Work>
    </rdf:RDF>
  </metadata>
  <defs
     id="defs6" />
  <sodipodi:namedview
     pagecolor="#ffffff"
     bordercolor="#666666"
     borderopacity="1"
     objecttolerance="10"
     gridtolerance="10"
     guidetolerance="10"
     inkscape:pageopacity="0"
     inkscape:pageshadow="2"
     inkscape:window-width="1364"
     inkscape:window-height="718"
     id="namedview4"
     showgrid="false"
     inkscape:zoom="0.52809241"
     inkscape:cx="-50.290272"
     inkscape:cy="20.348308"
     inkscape:window-x="0"
     inkscape:window-y="0"
     inkscape:window-maximized="1"
     inkscape:current-layer="svg2" />
  <path
     style="fill:#000000"
     d="M 17.267381,34.982169 C 11.823385,30.283931 3.7539235,5.6848119 30.759244,6.2128636 57.764564,6.7409153 51.975447,28.026894 45.415217,32.211051 c -6.560229,4.184156 -2.294521,9.925553 5.698298,14.892557 7.99282,4.967004 4.278542,29.946624 -20.830698,29.33517 C 5.1735769,75.827325 11.835715,50.819263 17.387513,46.222156 22.939312,41.62505 22.711377,39.680407 17.267381,34.982169 z M 29.264684,24.320657 c -7.040799,0.364989 -5.982499,7.716234 -0.454192,8.003551 5.528308,0.287317 7.49499,-8.36854 0.454192,-8.003551 z m 0.417509,42.111787 c 8.381209,-0.586448 6.77657,-12.765553 -0.458543,-12.038705 -7.235114,0.726848 -7.922665,12.625152 0.458543,12.038705 z"
     id="path2987"
     inkscape:connector-curvature="0"
     sodipodi:nodetypes="zzzzzzzzzzzzz" />
</svg>
