<?xml version="1.0" encoding="UTF-8" standalone="no"?>
<!-- Created with Inkscape (http://www.inkscape.org/) -->

<svg
   xmlns:dc="http://purl.org/dc/elements/1.1/"
   xmlns:cc="http://creativecommons.org/ns#"
   xmlns:rdf="http://www.w3.org/1999/02/22-rdf-syntax-ns#"
   xmlns:svg="http://www.w3.org/2000/svg"
   xmlns="http://www.w3.org/2000/svg"
   xmlns:sodipodi="http://sodipodi.sourceforge.net/DTD/sodipodi-0.dtd"
   xmlns:inkscape="http://www.inkscape.org/namespaces/inkscape"
   id="svg2"
   version="1.1"
   inkscape:version="0.48.4 r9939"
   width="83"
   height="83"
   sodipodi:docname="K.svg">
  <metadata
     id="metadata8">
    <rdf:RDF>
      <cc:Work
         rdf:about="">
        <dc:format>image/svg+xml</dc:format>
        <dc:type
           rdf:resource="http://purl.org/dc/dcmitype/StillImage" />
        <dc:title />
      </cc:Work>
    </rdf:RDF>
  </metadata>
  <defs
     id="defs6" />
  <sodipodi:namedview
     pagecolor="#ffffff"
     bordercolor="#666666"
     borderopacity="1"
     objecttolerance="10"
     gridtolerance="10"
     guidetolerance="10"
     inkscape:pageopacity="0"
     inkscape:pageshadow="2"
     inkscape:window-width="714"
     inkscape:window-height="480"
     id="namedview4"
     showgrid="false"
     inkscape:zoom="2.8433735"
     inkscape:cx="41.5"
     inkscape:cy="41.5"
     inkscape:window-x="157"
     inkscape:window-y="0"
     inkscape:window-maximized="0"
     inkscape:current-layer="svg2" />
  <path
     style="fill:#000000;fill-opacity:1;stroke:none"
     d="M 17.936441,10.550847 C 21.013494,7.5942344 26.442194,5.0992979 30.245762,7.0338983 36.923452,10.430356 31.093923,31.079635 37.983051,28.135593 48.788071,23.51811 52.121178,9.8667568 62.25,9.8474576 69.788521,9.8330939 79.265545,14.533505 73.504237,26.025424 68.255278,36.495375 37.758364,47.361966 49.588983,50.292372 64.261821,53.926786 86.25556,65.817719 68.932203,75.614407 50.439919,86.072146 33.506111,62.088308 29.894068,59.436441 25.543917,56.242674 41.511089,78.544118 20.04661,78.427966 6.943356,78.35706 9.2443393,52.304883 8.088983,40.444915 7.1371119,30.673763 10.371315,17.819864 17.936441,10.550847 z"
     id="path2989"
     inkscape:connector-curvature="0"
     sodipodi:nodetypes="aassssssssa" />
</svg>
