<?xml version="1.0" encoding="UTF-8" standalone="no"?>
<!-- Created with Inkscape (http://www.inkscape.org/) -->

<svg
   xmlns:dc="http://purl.org/dc/elements/1.1/"
   xmlns:cc="http://creativecommons.org/ns#"
   xmlns:rdf="http://www.w3.org/1999/02/22-rdf-syntax-ns#"
   xmlns:svg="http://www.w3.org/2000/svg"
   xmlns="http://www.w3.org/2000/svg"
   xmlns:sodipodi="http://sodipodi.sourceforge.net/DTD/sodipodi-0.dtd"
   xmlns:inkscape="http://www.inkscape.org/namespaces/inkscape"
   id="svg2"
   version="1.1"
   inkscape:version="0.48.4 r9939"
   width="69"
   height="72"
   sodipodi:docname="Q.png">
  <metadata
     id="metadata8">
    <rdf:RDF>
      <cc:Work
         rdf:about="">
        <dc:format>image/svg+xml</dc:format>
        <dc:type
           rdf:resource="http://purl.org/dc/dcmitype/StillImage" />
        <dc:title></dc:title>
      </cc:Work>
    </rdf:RDF>
  </metadata>
  <defs
     id="defs6" />
  <sodipodi:namedview
     pagecolor="#ffffff"
     bordercolor="#666666"
     borderopacity="1"
     objecttolerance="10"
     gridtolerance="10"
     guidetolerance="10"
     inkscape:pageopacity="0"
     inkscape:pageshadow="2"
     inkscape:window-width="714"
     inkscape:window-height="480"
     id="namedview4"
     showgrid="false"
     inkscape:zoom="1.6388889"
     inkscape:cx="-26.151564"
     inkscape:cy="-21.269296"
     inkscape:window-x="0"
     inkscape:window-y="0"
     inkscape:window-maximized="0"
     inkscape:current-layer="svg2" />
  <path
     style="fill:#000000;stroke:none;stroke-width:1px;stroke-linecap:butt;stroke-linejoin:miter;stroke-opacity:1;fill-opacity:1"
     d="M 37.78125 6 C 34.242288 5.9773294 30.312675 6.5942907 25.9375 7.9375 C 2.0797197 15.685719 2.1053792 42.020663 10.6875 56.75 C 19.979202 72.697178 33.484858 67.146374 43.3125 64.375 C 48.619823 62.878346 52.370405 70.443194 60.40625 65.28125 C 72.64459 57.419773 54.848398 53.562414 58.875 50.9375 C 63.81541 47.71688 67.887526 32.782335 60.78125 20.75 C 55.523592 11.847744 48.398137 6.0680119 37.78125 6 z M 30 23.4375 C 32.724509 23.460688 32.88111 38.138192 28.96875 36.625 C 26.053348 35.497403 23.592144 31.539754 28.6875 24.40625 C 29.17636 23.721846 29.610784 23.434187 30 23.4375 z "
     id="path2987" />
</svg>
