<?xml version="1.0" encoding="UTF-8" standalone="no"?>
<!-- Created with Inkscape (http://www.inkscape.org/) -->

<svg
   xmlns:dc="http://purl.org/dc/elements/1.1/"
   xmlns:cc="http://creativecommons.org/ns#"
   xmlns:rdf="http://www.w3.org/1999/02/22-rdf-syntax-ns#"
   xmlns:svg="http://www.w3.org/2000/svg"
   xmlns="http://www.w3.org/2000/svg"
   xmlns:sodipodi="http://sodipodi.sourceforge.net/DTD/sodipodi-0.dtd"
   xmlns:inkscape="http://www.inkscape.org/namespaces/inkscape"
   id="svg2"
   version="1.1"
   inkscape:version="0.48.4 r9939"
   width="78"
   height="78"
   sodipodi:docname="divide.svg">
  <metadata
     id="metadata8">
    <rdf:RDF>
      <cc:Work
         rdf:about="">
        <dc:format>image/svg+xml</dc:format>
        <dc:type
           rdf:resource="http://purl.org/dc/dcmitype/StillImage" />
        <dc:title></dc:title>
      </cc:Work>
    </rdf:RDF>
  </metadata>
  <defs
     id="defs6" />
  <sodipodi:namedview
     pagecolor="#ffffff"
     bordercolor="#666666"
     borderopacity="1"
     objecttolerance="10"
     gridtolerance="10"
     guidetolerance="10"
     inkscape:pageopacity="0"
     inkscape:pageshadow="2"
     inkscape:window-width="1364"
     inkscape:window-height="718"
     id="namedview4"
     showgrid="false"
     inkscape:zoom="4.2789026"
     inkscape:cx="14.664359"
     inkscape:cy="37.267406"
     inkscape:window-x="0"
     inkscape:window-y="0"
     inkscape:window-maximized="1"
     inkscape:current-layer="svg2" />
  <path
     style="fill:#000000;stroke:none;stroke-width:1px;stroke-linecap:butt;stroke-linejoin:miter;stroke-opacity:1;fill-opacity:1"
     d="M 17.995268,20.976033 C 15.941035,13.412897 28.85533,6.60614 36.691651,6.720041 45.109903,6.8424004 55.607622,14.223261 56.322853,22.611966 57.25608,33.557484 29.71561,37.539264 34.588308,47.384673 38.121174,54.522918 55.804628,38.227898 58.426196,45.74874 61.413385,54.318485 45.046212,61.772074 35.990537,61.173256 28.450549,60.674665 20.004549,53.491981 19.163792,45.982445 18.124945,36.703594 39.08087,31.611738 35.289422,23.079376 32.931266,17.772528 19.51742,26.580191 17.995268,20.976033 z"
     id="path3772"
     inkscape:connector-curvature="0"
     sodipodi:nodetypes="aaaaaaaaa" />
  <path
     style="fill:#000000;stroke:none;stroke-width:1px;stroke-linecap:butt;stroke-linejoin:miter;stroke-opacity:1;fill-opacity:1"
     d="m 31.316441,68.885513 c -0.209653,3.641228 7.378159,5.944802 10.28301,3.739277 1.617924,-1.228418 1.17387,-4.87929 -0.467409,-6.076324 -2.717383,-1.98187 -9.622269,-1.02072 -9.815601,2.337047 z"
     id="path3774"
     inkscape:connector-curvature="0"
     sodipodi:nodetypes="aaaa" />
</svg>
